# xmcd CD database file
#
# Track frame offsets:
#	150
#	22012
#	38245
#	65910
#	84058
#	98627
#	116080
#	141401
#	167689
#	183836
#	203221
#	228389
#
# Disc length: 3379 seconds
#
# Revision: 0
# Processed by: cddbd v1.5PL3 Copyright (c) Steve Scherf et al.
# Submitted via: CDex 1.51
#
DISCID=a00d310c
DTITLE=Whoodoo Band - Bringin Home the Blues
DYEAR=2004
DGENRE=Blues
TTITLE0=Bringin Home the Blues
TTITLE1=Shame, Shame
TTITLE2=Bad Thing
TTITLE3=Lies
TTITLE4=Some Women
TTITLE5=Call Your Shot
TTITLE6=Left Me With the Blues
TTITLE7=Bass Player Wanted
TTITLE8=MTV Blues
TTITLE9=Deeper Shade of Blue
TTITLE10=On The Stage
TTITLE11=Wrong is Alright
EXTD=YEAR: 2004
EXTT0=
EXTT1=
EXTT2=
EXTT3=
EXTT4=
EXTT5=
EXTT6=
EXTT7=
EXTT8=
EXTT9=
EXTT10=
EXTT11=
PLAYORDER=
